<?xml version="1.0" encoding="UTF-8"?><svg id="Layer_2" xmlns="http://www.w3.org/2000/svg" viewBox="0 0 565.94 86.42"><defs><style>.cls-1{fill:#302f26;}</style></defs><g id="Layer_1-2"><path class="cls-1" d="m559.28,20.11c-5.29,0-9.6,3.92-11.56,10.68v-10.68h-1.37l-9.8,3.72v1.37c5.88-1.37,7.64-.59,7.64,5v32.72c0,4.6-4.21,5.39-7.64,5.88v1.37h21.65v-1.37c-6.37-.49-10.48-1.27-10.48-5.88v-25.57c0-7.84,4.6-13.62,9.5-13.62,3.82,0,3.33,3.13,6.37,3.13,1.47,0,2.35-1.47,2.35-2.65,0-2.06-2.06-4.11-6.66-4.11m-43.09,2.74c8.03,0,13.42,6.47,13.03,15.87h-28.21c1.47-10.19,6.56-15.87,15.18-15.87m15.97,34.39c-1.76,6.07-6.86,10.19-12.44,10.19-12.05,0-19.2-9.11-19.2-21.94,0-1.67.1-3.33.2-4.8h32.43c1.27-10.38-4.61-20.57-15.38-20.57-12.64,0-21.36,11.17-21.36,26.84,0,14.3,8.23,24.59,21.36,24.59,7.94,0,14.2-5.58,15.67-14.01l-1.27-.29Zm-37.77,8.13c-1.08,1.27-2.45,3.43-5.68,3.43-5.39,0-8.42-3.82-8.42-10.29V24.32h14.5v-2.74h-14.5v-11.76h-1.37c-.88,8.52-3.82,12.25-10.38,13.13v1.37h8.23v34.19c0,8.62,3.72,13.13,10.29,13.13,4.8,0,7.84-4.31,8.03-5.98l-.69-.29Zm-29.69,0c-1.08,1.27-2.45,3.43-5.68,3.43-5.39,0-8.42-3.82-8.42-10.29V24.32h14.5v-2.74h-14.5v-11.76h-1.37c-.88,8.52-3.82,12.25-10.38,13.13v1.37h8.23v34.19c0,8.62,3.72,13.13,10.29,13.13,4.8,0,7.84-4.31,8.03-5.98l-.69-.29Zm-49.31,2.55c-5.58,0-10.48-4.31-10.48-10.19,0-7.25,4.6-11.27,14.79-12.54l9.6-1.08v11.85c-3.33,7.35-8.13,11.95-13.91,11.95m24.1-2.35c-1.18,2.06-2.45,2.94-3.72,2.94-1.67,0-2.94-1.27-2.94-3.53v-27.43c0-10.78-5.88-17.44-14.7-17.44-12.73,0-17.34,8.82-17.34,14.01,0,3.43,2.25,3.92,3.53,3.43s1.76-1.96,1.18-4.7c-.98-4.41,1.86-9.99,10.68-9.99,7.93,0,13.13,5.68,13.13,14.89v3.72l-9.9.98c-12.73,1.27-18.61,6.66-18.61,16.46,0,7.54,5.98,12.74,13.13,12.74s12.24-4.9,15.38-13.23v6.86c0,4.02,2.06,6.37,5.29,6.37,1.57,0,4.02-1.27,6.07-5.58l-1.18-.49ZM395.69.81h-12.44l-28.21,62.21L328.29.81h-12.34v1.47c6.56.1,8.82,1.96,8.82,7.05v52.22c0,4.9-2.25,6.76-9.01,7.25v1.37h20.57v-1.37c-6.76-.49-8.82-2.35-8.82-7.25V9.82l25.96,60.35h1.37l27.53-60.84v52.22c0,4.9-2.25,6.76-9.01,7.25v1.37h22.34v-1.37c-6.76-.49-9.01-2.35-9.01-7.25V9.43c0-4.9,2.25-6.76,9.01-7.25V.81Z"/><path class="cls-1" d="m302.72,65.11c-2.81,0-4.72-1.99-4.72-4.9V23.85h11.88v-5.35h-11.88V1.45l-5.98,3.36v13.69h-9.07v5.35h9.07v37.09c0,5.62,3.72,9.34,9.34,9.34h8.52l.82-5.17h-7.98Zm-43.82,6.26c11.7,0,20.31-7.16,21.94-18.23l-5.89-.91c-1.27,8.43-7.62,13.69-16.05,13.69-10.88,0-18.04-8.43-18.04-21.58s7.16-21.49,18.04-21.49c7.89,0,13.78,5.62,14.96,13.33l5.89-.82c-1.45-10.34-9.52-17.95-20.86-17.95-14.51,0-24.03,10.52-24.03,26.93s9.52,27.02,24.03,27.02m-52.15-48.51c8.52,0,14.42,6.08,14.96,14.87h-32.1c1.99-9.34,8.8-14.87,17.14-14.87m16.5,30.2c-1.54,7.98-7.71,12.88-16.05,12.88-10.97,0-18.23-8.71-18.23-21.4v-1.81h38.72c.18-1.27.27-2.54.27-3.17-.18-12.42-8.34-22.13-21.49-22.13s-23.49,11.15-23.49,26.93,9.79,27.02,24.21,27.02c11.15,0,19.95-6.53,21.76-17.23l-5.71-1.09Zm-58.86,33.37c5.62,0,9.43-3.26,9.43-8.61V18.5h-5.89v58.76c0,2.27-1.54,3.99-3.81,3.99h-3.81l.82,5.17h3.26Zm6.53-77.62c2.63,0,4.53-1.81,4.53-4.44s-1.9-4.35-4.53-4.35-4.53,1.72-4.53,4.35,1.9,4.44,4.53,4.44m-35.09,57.13c-9.52,0-16.32-8.43-16.32-21.49s6.8-21.58,16.32-21.58,16.87,8.43,16.87,21.58-6.89,21.49-16.87,21.49m.91-48.51c-7.8,0-14.42,4.81-17.23,12.69V2.45h-5.89v67.83h4.99l.82-11.88c2.72,8.07,9.52,12.97,17.32,12.97,12.79,0,21.94-10.52,21.94-26.93s-9.07-27.02-21.94-27.02m-41.55,1.09v29.11c0,10.16-5.53,18.32-14.78,18.32-8.61,0-14.06-5.62-14.06-14.96V18.5h-5.98v33.55c0,11.97,7.25,19.31,18.59,19.31,7.8,0,13.78-4.44,16.41-12.51l.91,11.43h4.81V18.5h-5.89ZM27.11,71.36c14.15,0,23.76-7.98,23.76-19.5,0-26.3-42.44-14.6-42.44-33.37,0-7.16,6.53-11.61,16.96-11.61,9.7,0,16.96,5.71,19.22,14.6l6.35-.82C48.51,9.43,38.72,1.36,25.93,1.36,11.52,1.36,2.09,8.25,2.09,18.77c0,25.12,42.44,13.15,42.44,33.55,0,7.8-7.07,13.33-17.05,13.33-10.79,0-19.13-7.16-21.22-18.04l-6.26,1c2.36,13.51,13.42,22.76,27.11,22.76"/></g></svg>